<?xml version="1.0" encoding="UTF-8" standalone="no"?>
<!-- Created with Inkscape (http://www.inkscape.org/) -->

<svg
   xmlns:dc="http://purl.org/dc/elements/1.1/"
   xmlns:cc="http://creativecommons.org/ns#"
   xmlns:rdf="http://www.w3.org/1999/02/22-rdf-syntax-ns#"
   xmlns:svg="http://www.w3.org/2000/svg"
   xmlns="http://www.w3.org/2000/svg"
   xmlns:sodipodi="http://sodipodi.sourceforge.net/DTD/sodipodi-0.dtd"
   xmlns:inkscape="http://www.inkscape.org/namespaces/inkscape"
   width="400"
   height="400"
   viewBox="0 0 105.83333 105.83334"
   version="1.1"
   id="svg8"
   inkscape:version="0.92.4 (5da689c313, 2019-01-14)"
   sodipodi:docname="books.svg">
  <defs
     id="defs2" />
  <sodipodi:namedview
     id="base"
     pagecolor="#ffffff"
     bordercolor="#666666"
     borderopacity="1.0"
     inkscape:pageopacity="0.0"
     inkscape:pageshadow="2"
     inkscape:zoom="0.35"
     inkscape:cx="-77.142857"
     inkscape:cy="560"
     inkscape:document-units="mm"
     inkscape:current-layer="layer1"
     showgrid="false"
     inkscape:window-width="1920"
     inkscape:window-height="1001"
     inkscape:window-x="-9"
     inkscape:window-y="-9"
     inkscape:window-maximized="1"
     units="px" />
  <metadata
     id="metadata5">
    <rdf:RDF>
      <cc:Work
         rdf:about="">
        <dc:format>image/svg+xml</dc:format>
        <dc:type
           rdf:resource="http://purl.org/dc/dcmitype/StillImage" />
        <dc:title></dc:title>
      </cc:Work>
    </rdf:RDF>
  </metadata>
  <g
     inkscape:label="Layer 1"
     inkscape:groupmode="layer"
     id="layer1"
     transform="translate(0,-191.16665)">
    <path
       style="fill:#000000;stroke-width:0.35484949"
       d="m 27.899816,275.8521 c -9.660778,-3.15899 -18.1026355,-5.96829 -18.7596849,-6.24288 -2.4926814,-1.0417 -4.1690351,-4.65362 -4.5459859,-9.7949 -0.2381537,-3.2482 0.363747,-5.94389 1.7996067,-8.05974 l 0.8651376,-1.27486 -1.2735738,-0.30119 c -2.5214393,-0.5963 -1.5861673,-1.54038 3.0880305,-3.11712 2.2032538,-0.74322 2.3194498,-0.84025 2.5957898,-2.16784 0.367283,-1.76448 -0.203057,-5.51704 -1.063921,-7.00005 -0.361372,-0.62253 -1.426232,-1.55055 -2.3663591,-2.06224 -2.7566559,-1.50039 -2.9122711,-2.51849 -0.4848507,-3.17212 0.7848706,-0.21135 1.8296303,-0.53734 2.3216918,-0.72441 l 0.894656,-0.34015 -0.719847,-0.78755 c -1.8771365,-2.05371 -2.7299169,-5.52674 -2.5111547,-10.22693 0.1694241,-3.6401 0.6652221,-5.01013 2.5208487,-6.96573 0.598374,-0.63062 1.578511,-1.30286 2.178082,-1.49386 0.599572,-0.19101 13.364253,-2.04884 28.365951,-4.12852 l 27.275835,-3.78124 16.725515,5.03265 c 9.409587,2.83131 16.908857,5.27018 17.144697,5.57572 0.62111,0.80468 0.23056,1.40478 -1.42306,2.18666 -2.645762,1.25101 -3.659061,3.00743 -3.822817,6.62639 -0.182516,4.03352 -0.236682,3.92775 2.431445,4.74801 2.541692,0.78136 4.701772,1.93337 4.701772,2.50752 0,0.33303 -1.44041,0.82149 -3.83397,1.30022 -1.34928,0.26985 -1.370571,0.40681 -0.335528,2.15817 0.717758,1.21449 0.798408,1.81697 0.798408,5.96402 0,4.32337 -0.0635,4.75052 -1.011619,6.80262 -0.556399,1.20426 -1.403561,2.55778 -1.882608,3.00781 l -0.870968,0.81824 1.172897,0.39492 c 1.769431,0.59575 1.632297,1.88442 -0.299616,2.81554 -0.809895,0.39033 -1.809497,1.01533 -2.221352,1.38888 -1.037038,0.9406 -1.806296,3.77998 -1.806296,6.66724 0,2.18896 0.07829,2.45746 0.798412,2.736 0.43913,0.16988 1.968392,0.74427 3.398357,1.27644 2.370243,0.88208 3.329223,1.63728 2.778443,2.18806 -0.26983,0.26982 -53.819017,13.24831 -54.525039,13.21498 -0.292759,-0.0134 -8.436562,-2.60975 -18.097325,-5.76876 z m 51.098328,-6.88152 12.597163,-3.15318 0.211133,-4.05982 c 0.116178,-2.2329 0.39162,-4.49897 0.612208,-5.03567 0.220587,-0.53671 0.258023,-0.97583 0.08315,-0.97583 -1.059754,0 -28.663044,5.88005 -30.822519,6.56582 -1.445656,0.45908 -2.85133,0.74916 -3.123737,0.64463 -0.27239,-0.10461 -2.627406,0.24768 -5.233371,0.7827 l -4.738112,0.97275 -0.227311,3.94473 c -0.125063,2.1696 -0.228048,4.84041 -0.228936,5.93515 l -0.0017,1.99042 9.13738,-2.22926 c 5.025558,-1.22611 14.806093,-3.6482 21.734527,-5.38244 z m -32.579979,1.59046 c 0.07075,-3.17146 0.09824,-5.81924 0.06136,-5.88395 -0.03688,-0.0647 -8.08397,-2.72816 -17.882299,-5.91879 -19.1543775,-6.23723 -18.8162601,-6.16665 -20.1068768,-4.19693 -0.514011,0.78448 -0.6395456,1.71048 -0.6395456,4.71759 0,3.19393 0.1161113,3.95873 0.7933401,5.22556 0.4363375,0.81623 0.9938038,1.60794 1.2388143,1.75935 0.649807,0.40161 34.732013,9.99564 35.639428,10.03241 0.751185,0.0303 0.769928,-0.0895 0.895763,-5.73524 z m 10.641781,-18.45218 c -0.07796,-3.17146 -0.200471,-5.82956 -0.272273,-5.90692 -0.157252,-0.1694 -43.928219,-9.19912 -44.063888,-9.09015 -0.0522,0.0419 0.165835,1.0941 0.484533,2.33812 0.386918,1.5103 0.527741,3.15532 0.423804,4.95075 l -0.155659,2.68887 21.316943,5.3597 c 11.724324,2.94783 21.562496,5.3746 21.862598,5.39282 0.475392,0.0288 0.527412,-0.70946 0.403942,-5.73319 z m 21.00842,0.59055 c 9.357197,-2.62274 17.25266,-4.96629 17.545486,-5.20789 0.8706,-0.71829 1.769213,-3.13049 2.028694,-5.44571 0.436247,-3.89249 -0.913785,-7.5907 -2.770977,-7.5907 -0.583272,0 -35.687086,11.26415 -36.054884,11.56933 -0.07292,0.0605 -0.01509,2.76449 0.127746,6.00898 l 0.260219,5.89909 0.925319,-0.23223 c 0.508922,-0.12775 8.5812,-2.37812 17.938397,-5.00087 z m -28.557947,-22.21763 0.03521,-3.08622 -14.814968,-4.83013 c -8.148236,-2.65656 -16.045157,-5.23057 -17.54872,-5.72001 -3.575817,-1.164 -4.818174,-1.04358 -5.749685,0.55729 -1.5078671,2.59137 -0.745424,9.42212 1.254896,11.24263 0.462096,0.42056 7.262888,2.50109 18.528135,5.66821 l 17.798067,5.00377 0.230915,-2.87467 c 0.127075,-1.58106 0.246757,-4.26346 0.266137,-5.96087 z m 45.171442,-4.73335 c -0.06739,-1.7787 0.100252,-3.60077 0.452207,-4.91682 0.307612,-1.14998 0.498762,-2.1514 0.424797,-2.22536 -0.18897,-0.18897 -43.652357,8.75798 -43.951235,9.04737 -0.183337,0.17752 -0.456364,10.19472 -0.312022,11.44785 0.01341,0.11585 9.80481,-2.20527 21.758802,-5.15818 l 21.734543,-5.36893 z"
       id="path21"
       inkscape:connector-curvature="0" />
  </g>
</svg>
