<?xml version="1.0" encoding="UTF-8" standalone="no"?>
<!-- Created with Inkscape (http://www.inkscape.org/) -->

<svg
   xmlns:dc="http://purl.org/dc/elements/1.1/"
   xmlns:cc="http://creativecommons.org/ns#"
   xmlns:rdf="http://www.w3.org/1999/02/22-rdf-syntax-ns#"
   xmlns:svg="http://www.w3.org/2000/svg"
   xmlns="http://www.w3.org/2000/svg"
   xmlns:sodipodi="http://sodipodi.sourceforge.net/DTD/sodipodi-0.dtd"
   xmlns:inkscape="http://www.inkscape.org/namespaces/inkscape"
   width="500"
   height="500"
   viewBox="0 0 132.29166 132.29167"
   version="1.1"
   id="svg5750"
   inkscape:version="0.92.4 (5da689c313, 2019-01-14)"
   sodipodi:docname="bookexchanger-logo.svg">
  <defs
     id="defs5744" />
  <sodipodi:namedview
     id="base"
     pagecolor="#ffffff"
     bordercolor="#666666"
     borderopacity="1.0"
     inkscape:pageopacity="0.0"
     inkscape:pageshadow="2"
     inkscape:zoom="0.35"
     inkscape:cx="-77.142857"
     inkscape:cy="560"
     inkscape:document-units="mm"
     inkscape:current-layer="layer1"
     showgrid="false"
     units="px"
     inkscape:window-width="1920"
     inkscape:window-height="1001"
     inkscape:window-x="-9"
     inkscape:window-y="-9"
     inkscape:window-maximized="1" />
  <metadata
     id="metadata5747">
    <rdf:RDF>
      <cc:Work
         rdf:about="">
        <dc:format>image/svg+xml</dc:format>
        <dc:type
           rdf:resource="http://purl.org/dc/dcmitype/StillImage" />
        <dc:title></dc:title>
      </cc:Work>
    </rdf:RDF>
  </metadata>
  <g
     inkscape:label="Layer 1"
     inkscape:groupmode="layer"
     id="layer1"
     transform="translate(0,-164.70832)">
    <g
       id="g6335"
       transform="matrix(2.8166486,0,0,2.8166486,-17.228079,-305.72285)">
      <path
         inkscape:connector-curvature="0"
         id="path5634-0"
         d="m 31.31781,174.30968 -17.68591,5.83896 17.14655,2.6849 17.53369,-6.6747 z"
         style="display:inline;fill:#1edd33;fill-opacity:1;stroke:none;stroke-width:0.26458332px;stroke-linecap:butt;stroke-linejoin:miter;stroke-opacity:1" />
      <path
         inkscape:connector-curvature="0"
         id="path843-8-6"
         d="m 13.6319,180.14864 v 0.0341 a 5.6458361,3.1915246 85.720605 0 0 -0.14365,-0.0349 5.6458361,3.1915246 85.720605 0 0 -3.21034,5.10985 5.6458361,3.1915246 85.720605 0 0 3.21034,6.11531 5.6458361,3.1915246 85.720605 0 0 0.14365,0.0135 v 0.03 l 17.14655,2.68508 v -11.26804 z"
         style="display:inline;opacity:1;fill:#ff0000;fill-opacity:0.91372549;stroke:none;stroke-width:1.58823144;stroke-linecap:round;stroke-linejoin:round;stroke-miterlimit:4;stroke-dasharray:none;stroke-opacity:1" />
      <path
         id="path843-0-3-5"
         d="m 13.65083,191.41029 v 0.0341 a 5.6458361,3.1915248 85.720605 0 0 -0.14365,-0.0349 5.6458361,3.1915248 85.720605 0 0 -3.21034,5.10986 5.6458361,3.1915248 85.720605 0 0 3.21034,6.1153 5.6458361,3.1915248 85.720605 0 0 0.14365,0.0135 v 0.03 l 17.14656,2.68508 v -11.26802 z"
         style="display:inline;opacity:1;fill:#ffd42a;fill-opacity:0.91372549;stroke:none;stroke-width:1.58823144;stroke-linecap:round;stroke-linejoin:round;stroke-miterlimit:4;stroke-dasharray:none;stroke-opacity:1"
         inkscape:connector-curvature="0" />
      <rect
         transform="matrix(0.93395686,-0.35738575,0,1,0,0)"
         y="194.64584"
         x="33.301514"
         height="7.5407038"
         width="18.426943"
         id="rect863-9-8"
         style="display:inline;opacity:1;fill:#2f006b;fill-opacity:1;stroke:none;stroke-width:1.46476471;stroke-linecap:round;stroke-linejoin:round;stroke-miterlimit:4;stroke-dasharray:none;stroke-opacity:1" />
      <rect
         transform="matrix(0.93395686,-0.35738575,0,1,0,0)"
         y="202.16644"
         x="33.301514"
         height="7.5407038"
         width="18.426943"
         id="rect863-7-1-63"
         style="display:inline;opacity:1;fill:#0000d6;fill-opacity:1;stroke:none;stroke-width:1.46476471;stroke-linecap:round;stroke-linejoin:round;stroke-miterlimit:4;stroke-dasharray:none;stroke-opacity:1" />
      <rect
         transform="matrix(0.93395686,-0.35738575,0,1,0,0)"
         y="209.7072"
         x="33.301514"
         height="7.5407038"
         width="18.426943"
         id="rect863-7-6-2-0"
         style="display:inline;opacity:1;fill:#2f80bd;fill-opacity:1;stroke:none;stroke-width:1.46476471;stroke-linecap:round;stroke-linejoin:round;stroke-miterlimit:4;stroke-dasharray:none;stroke-opacity:1" />
      <path
         sodipodi:nodetypes="ccccccccccsccccccccccccccccccccccccccccccccccccccccccccsccccccccccccscccccccc"
         inkscape:connector-curvature="0"
         id="path5572-9"
         d="m 31.31363,173.7092 c -0.0584,8e-4 -0.38394,-0.0209 -0.43966,-0.003 -6.61608,1.89412 -15.78385,4.6602 -18.74059,5.78266 -0.66408,0.36497 -1.26461,1.01191 -1.58747,1.52581 -0.6872795,1.09392 -1.0624495,2.57158 -1.0624695,4.24418 2e-5,1.6726 0.37958,3.24223 1.0314595,4.48397 0.29736,0.56643 0.66377,1.06264 1.09141,1.45624 -0.40554,0.27126 -0.7627,0.63486 -1.04077,1.07745 -0.6872795,1.09392 -1.0624495,2.57107 -1.0624695,4.24367 2e-5,1.6726 0.37908,3.24275 1.0309495,4.48448 0.61207,1.16594 1.42108,2.03204 2.54771,2.34689 0.12188,0.0341 0.8885,0.24356 1.01345,0.2636 l 16.57973,2.53235 c 0.19069,0.0295 0.38559,-0.0115 0.54829,-0.11524 l 17.08836,-6.53913 c 0.37709,-0.14423 0.68312,-0.58802 0.6842,-0.99219 v -7.54114 -7.5215 -7.54114 c -10e-6,-0.30207 -0.19763,-0.51797 -0.43393,-0.54459 -0.10002,-0.0119 -0.23025,-0.0223 -0.23025,-0.0223 l -0.4114,-0.0464 -16.54609,-1.5721 c -0.0201,-0.002 -0.0403,-0.002 -0.0605,-0.002 z m 0.0661,1.20923 14.66215,1.37614 -14.93914,5.71645 c -0.0392,0.0153 -0.0782,0.0341 -0.11679,0.0563 -0.0279,-0.008 -0.0562,-0.0136 -0.0847,-0.0181 l -15.05851,-2.35851 z m 16.2481,2.23397 v 6.05648 l -15.84089,6.06165 v -6.05648 z m -34.46301,3.76773 c 0.0638,-8e-4 0.1286,0.004 0.19378,0.0139 0.0191,0.004 0.039,0.008 0.0584,0.0134 0.32039,0.0217 0.21323,0.0364 0.32039,0.0217 l 16.24604,2.543 v 9.65212 l -16.05897,-2.51561 c -0.0797,-0.0316 -0.16399,-0.0501 -0.2496,-0.0548 -0.0213,-0.001 -0.0429,-0.003 -0.0646,-0.006 -0.52475,-0.0822 -1.17926,-0.61232 -1.6893,-1.58389 -0.51005,-0.97156 -0.84955,-2.31941 -0.84956,-3.74654 10e-6,-1.42712 0.34339,-2.64484 0.81803,-3.40031 0.41314,-0.6576 0.82863,-0.9316 1.27538,-0.93741 z m 34.46301,3.77341 v 6.05648 l -10.68617,4.08916 -5.15472,1.97249 v -6.05648 z m -34.44337,7.48792 c 0.0639,-8e-4 0.12798,0.004 0.19326,0.0139 v 5.3e-4 c 0.0189,0.004 0.0377,0.008 0.0568,0.0134 0.0924,0.0255 0.18873,0.0341 0.28422,0.0253 l 16.28428,2.54817 v 9.65109 l -15.55875,-2.43551 c -0.34115,-0.0596 -0.39925,-0.0689 -0.63494,-0.10912 -0.0213,-0.001 -0.15777,-0.0362 -0.17947,-0.0392 -0.52476,-0.0822 -1.17927,-0.61283 -1.68931,-1.5844 -0.51004,-0.97156 -0.85006,-2.3189 -0.85008,-3.74602 2e-5,-1.42712 0.34392,-2.64484 0.81856,-3.40031 0.41366,-0.65841 0.82836,-0.93272 1.27538,-0.93793 z m 34.44337,0.0336 v 6.07611 l -15.84089,6.06165 v -6.07612 z"
         style="color:#000000;font-style:normal;font-variant:normal;font-weight:normal;font-stretch:normal;font-size:medium;line-height:normal;font-family:sans-serif;font-variant-ligatures:normal;font-variant-position:normal;font-variant-caps:normal;font-variant-numeric:normal;font-variant-alternates:normal;font-feature-settings:normal;text-indent:0;text-align:start;text-decoration:none;text-decoration-line:none;text-decoration-style:solid;text-decoration-color:#000000;letter-spacing:normal;word-spacing:normal;text-transform:none;writing-mode:lr-tb;direction:ltr;text-orientation:mixed;dominant-baseline:auto;baseline-shift:baseline;text-anchor:start;white-space:normal;shape-padding:0;clip-rule:nonzero;display:inline;overflow:visible;visibility:visible;opacity:1;isolation:auto;mix-blend-mode:normal;color-interpolation:sRGB;color-interpolation-filters:linearRGB;solid-color:#000000;solid-opacity:1;vector-effect:none;fill:#000000;fill-opacity:1;fill-rule:nonzero;stroke:none;stroke-width:1.20000005;stroke-linecap:butt;stroke-linejoin:round;stroke-miterlimit:4;stroke-dasharray:none;stroke-dashoffset:0;stroke-opacity:1;color-rendering:auto;image-rendering:auto;shape-rendering:auto;text-rendering:auto;enable-background:accumulate" />
    </g>
  </g>
</svg>
